<?xml version="1.0" encoding="UTF-8"?>
<svg width="375" height="812" viewBox="0 0 375 812" fill="none" xmlns="http://www.w3.org/2000/svg">
    <!-- Background Grid Pattern -->
    <pattern id="grid" x="0" y="0" width="40" height="40" patternUnits="userSpaceOnUse">
        <path d="M 40 0 L 0 0 0 40" fill="none" stroke="#00704A" stroke-width="0.2" opacity="0.1"/>
    </pattern>
    <rect width="375" height="812" fill="url(#grid)"/>
    
    <!-- Decorative Circles -->
    <circle cx="0" cy="200" r="120" fill="#00704A" fill-opacity="0.03"/>
    <circle cx="375" cy="600" r="160" fill="#00704A" fill-opacity="0.03"/>
    
    <!-- Abstract Leaf Shapes -->
    <path d="M320 100 Q380 140 340 180 Q300 220 260 180 Q220 140 280 100 Q300 80 320 100Z" 
          fill="#00704A" fill-opacity="0.02"/>
    <path d="M40 500 Q100 540 60 580 Q20 620 -20 580 Q-60 540 0 500 Q20 480 40 500Z" 
          fill="#00704A" fill-opacity="0.02"/>
    
    <!-- Subtle Dots -->
    <circle cx="50" cy="150" r="2" fill="#00704A" fill-opacity="0.1"/>
    <circle cx="320" cy="250" r="2" fill="#00704A" fill-opacity="0.1"/>
    <circle cx="180" cy="450" r="2" fill="#00704A" fill-opacity="0.1"/>
    <circle cx="280" cy="650" r="2" fill="#00704A" fill-opacity="0.1"/>
    <circle cx="120" cy="750" r="2" fill="#00704A" fill-opacity="0.1"/>
</svg> 